<?xml version="1.0" encoding="UTF-8"?>
<svg xmlns="http://www.w3.org/2000/svg" xmlns:xlink="http://www.w3.org/1999/xlink" width="64pt" height="64pt" viewBox="0 0 64 64" version="1.1">
<g id="surface1">
<path style=" stroke:none;fill-rule:evenodd;fill:rgb(100%,50.196078%,0%);fill-opacity:1;" d="M 29.910156 0.617188 C 31.152344 -0.207031 32.765625 -0.207031 34.003906 0.617188 C 37.15625 2.59375 40.179688 4.761719 43.058594 7.113281 C 43.058594 7.113281 43.839844 7.65625 43.867188 6.738281 C 43.867188 6.738281 43.734375 4.027344 44.066406 3.195312 C 44.285156 2.546875 44.894531 2.109375 45.578125 2.105469 C 45.578125 2.105469 49.132812 2.285156 51.390625 2.585938 C 52.402344 2.738281 53.171875 3.566406 53.25 4.582031 C 53.25 4.582031 54.703125 14.238281 55.03125 17.71875 C 55.03125 17.71875 55.3125 19.488281 57.886719 22.492188 C 57.886719 22.492188 63.074219 29.757812 63.714844 31.1875 C 63.714844 31.1875 64.9375 33.714844 62.324219 34.050781 C 62.324219 34.050781 57.546875 34.527344 57.097656 34.640625 C 56.445312 34.703125 55.964844 35.277344 56.027344 35.925781 C 56.027344 35.941406 56.027344 35.953125 56.03125 35.964844 C 56.03125 35.964844 55.78125 52.753906 54.550781 60.820312 C 54.550781 60.820312 54.230469 64.023438 52.445312 63.941406 C 52.445312 63.941406 47.542969 63.78125 46.40625 63.816406 C 46.40625 63.816406 45.910156 63.851562 45.984375 63.160156 C 45.984375 63.160156 48.480469 36.976562 46.789062 23.730469 C 46.789062 23.730469 46.722656 22.023438 45.40625 21.667969 C 45.40625 21.667969 44.222656 21.191406 43.078125 22.757812 C 43.078125 22.757812 35.308594 32.59375 35.320312 46.386719 C 35.320312 46.386719 35.179688 50.570312 35.816406 51.640625 C 35.816406 51.640625 36.214844 52.375 38.242188 52.539062 L 40.8125 52.882812 C 40.8125 52.882812 41.292969 52.882812 41.253906 53.507812 C 41.253906 53.507812 40.660156 61.1875 40.496094 62.550781 C 40.484375 62.863281 40.421875 63.171875 40.304688 63.460938 C 40.304688 63.460938 40.210938 63.722656 39.402344 63.691406 C 39.402344 63.691406 28.074219 63.609375 26.800781 63.691406 C 26.800781 63.691406 26.265625 63.746094 26.148438 63.414062 C 26.03125 63.082031 25.359375 53.496094 25.382812 52.132812 C 25.367188 51.847656 25.523438 51.582031 25.78125 51.457031 C 27.535156 50.363281 28.695312 48.527344 28.929688 46.472656 C 28.929688 46.472656 29.085938 45.675781 28.992188 42.078125 C 28.992188 42.078125 29.40625 27.347656 29.515625 24.984375 C 29.515625 24.984375 29.601562 24.1875 28.554688 24.03125 C 28.03125 23.910156 27.507812 24.234375 27.386719 24.753906 C 27.378906 24.785156 27.371094 24.8125 27.367188 24.839844 C 27.367188 24.839844 26.632812 34.558594 26.777344 38.429688 C 26.777344 38.429688 27.027344 40.945312 25.285156 40.992188 C 25.285156 40.992188 23.582031 41.246094 23.503906 39.15625 C 23.503906 39.15625 23.628906 29.703125 24.046875 25.035156 C 24.054688 24.503906 23.648438 24.058594 23.113281 24.019531 C 22.554688 23.933594 22.03125 24.308594 21.9375 24.867188 C 21.933594 24.898438 21.933594 24.925781 21.929688 24.953125 C 21.929688 24.953125 21.199219 33.992188 21.335938 38.765625 C 21.335938 38.765625 21.550781 41.078125 19.695312 40.992188 C 19.695312 40.992188 18.148438 41.175781 18.0625 39.117188 C 18.0625 39.117188 18.488281 26.183594 18.59375 25.179688 C 18.667969 24.605469 18.265625 24.082031 17.691406 24.003906 C 17.65625 24 17.621094 24 17.585938 23.996094 C 17.039062 23.925781 16.535156 24.308594 16.464844 24.855469 C 16.457031 24.886719 16.457031 24.921875 16.453125 24.953125 C 16.453125 24.953125 15.761719 40.425781 15.863281 44.96875 C 15.863281 44.96875 15.796875 49.640625 19.257812 51.535156 C 19.257812 51.535156 19.765625 51.832031 19.777344 52.273438 C 19.777344 52.273438 20.171875 60.484375 20.519531 63.128906 C 20.519531 63.128906 20.648438 63.761719 20.082031 63.761719 L 11.375 64 C 11.375 64 9.929688 64.097656 9.597656 62.316406 C 9.316406 60.65625 7.71875 46.957031 7.980469 36.09375 C 8.050781 35.417969 7.589844 34.800781 6.921875 34.671875 C 6.921875 34.671875 2.464844 34.257812 1.386719 33.992188 C 0.398438 33.738281 -0.195312 32.730469 0.0585938 31.746094 C 0.101562 31.582031 0.167969 31.421875 0.253906 31.273438 C 0.253906 31.273438 9.902344 12.980469 29.910156 0.617188 "/>
</g>
</svg>
