<?xml version="1.0" encoding="UTF-8"?>
<svg xmlns="http://www.w3.org/2000/svg" xmlns:xlink="http://www.w3.org/1999/xlink" width="128pt" height="128pt" viewBox="0 0 128 128" version="1.1">
<g id="surface1">
<path style=" stroke:none;fill-rule:evenodd;fill:rgb(100%,50.196078%,0%);fill-opacity:1;" d="M 59.820312 1.234375 C 62.300781 -0.410156 65.53125 -0.410156 68.011719 1.234375 C 74.3125 5.1875 80.359375 9.527344 86.117188 14.230469 C 86.117188 14.230469 87.683594 15.316406 87.730469 13.476562 C 87.730469 13.476562 87.46875 8.050781 88.132812 6.386719 C 88.574219 5.09375 89.785156 4.21875 91.15625 4.210938 C 91.15625 4.210938 98.265625 4.566406 102.78125 5.167969 C 104.800781 5.480469 106.339844 7.132812 106.5 9.160156 C 106.5 9.160156 109.40625 28.476562 110.058594 35.433594 C 110.058594 35.433594 110.625 38.980469 115.769531 44.980469 C 115.769531 44.980469 126.152344 59.515625 127.429688 62.371094 C 127.429688 62.371094 129.871094 67.429688 124.644531 68.101562 C 124.644531 68.101562 115.09375 69.058594 114.195312 69.285156 C 112.890625 69.40625 111.929688 70.554688 112.054688 71.855469 C 112.054688 71.878906 112.058594 71.902344 112.0625 71.929688 C 112.0625 71.929688 111.5625 105.503906 109.097656 121.640625 C 109.097656 121.640625 108.457031 128.046875 104.890625 127.882812 C 104.890625 127.882812 95.089844 127.558594 92.8125 127.628906 C 92.8125 127.628906 91.820312 127.703125 91.972656 126.320312 C 91.972656 126.320312 96.960938 73.949219 93.574219 47.464844 C 93.574219 47.464844 93.441406 44.046875 90.8125 43.339844 C 90.8125 43.339844 88.441406 42.382812 86.152344 45.515625 C 86.152344 45.515625 70.617188 65.183594 70.640625 92.769531 C 70.640625 92.769531 70.359375 101.144531 71.636719 103.285156 C 71.636719 103.285156 72.429688 104.746094 76.484375 105.078125 L 81.628906 105.765625 C 81.628906 105.765625 82.589844 105.765625 82.503906 107.015625 C 82.503906 107.015625 81.320312 122.375 80.988281 125.105469 C 80.96875 125.726562 80.839844 126.34375 80.609375 126.925781 C 80.609375 126.925781 80.417969 127.441406 78.808594 127.382812 C 78.808594 127.382812 56.148438 127.21875 53.597656 127.382812 C 53.597656 127.382812 52.535156 127.492188 52.296875 126.828125 C 52.058594 126.167969 50.71875 106.992188 50.769531 104.261719 C 50.734375 103.695312 51.050781 103.164062 51.5625 102.917969 C 55.074219 100.722656 57.394531 97.050781 57.855469 92.945312 C 57.855469 92.945312 58.175781 91.351562 57.984375 84.15625 C 57.984375 84.15625 58.816406 54.695312 59.027344 49.96875 C 59.027344 49.96875 59.207031 48.371094 57.109375 48.066406 C 56.0625 47.820312 55.015625 48.464844 54.769531 49.507812 C 54.757812 49.566406 54.746094 49.625 54.738281 49.683594 C 54.738281 49.683594 53.269531 69.117188 53.554688 76.855469 C 53.554688 76.855469 54.050781 81.886719 50.566406 81.980469 C 50.566406 81.980469 47.164062 82.492188 47.011719 78.308594 C 47.011719 78.308594 47.261719 59.40625 48.089844 50.074219 C 48.113281 49.011719 47.292969 48.117188 46.230469 48.042969 C 45.113281 47.863281 44.0625 48.621094 43.878906 49.734375 C 43.871094 49.792969 43.863281 49.851562 43.859375 49.910156 C 43.859375 49.910156 42.402344 67.984375 42.675781 77.527344 C 42.675781 77.527344 43.101562 82.160156 39.390625 81.980469 C 39.390625 81.980469 36.300781 82.347656 36.121094 78.238281 C 36.121094 78.238281 36.972656 52.363281 37.1875 50.355469 C 37.339844 49.210938 36.53125 48.160156 35.378906 48.011719 C 35.3125 48.003906 35.242188 47.996094 35.171875 47.996094 C 34.074219 47.851562 33.070312 48.621094 32.925781 49.710938 C 32.917969 49.777344 32.910156 49.84375 32.910156 49.910156 C 32.910156 49.910156 31.523438 80.851562 31.722656 89.933594 C 31.722656 89.933594 31.59375 99.277344 38.515625 103.070312 C 38.515625 103.070312 39.535156 103.660156 39.558594 104.546875 C 39.558594 104.546875 40.339844 120.96875 41.039062 126.261719 C 41.039062 126.261719 41.300781 127.523438 40.164062 127.523438 L 22.75 127.996094 C 22.75 127.996094 19.863281 128.199219 19.199219 124.628906 C 18.628906 121.3125 15.441406 93.917969 15.960938 72.191406 C 16.097656 70.835938 15.179688 69.601562 13.84375 69.339844 C 13.84375 69.339844 4.929688 68.515625 2.773438 67.984375 C 0.792969 67.472656 -0.390625 65.464844 0.117188 63.492188 C 0.203125 63.164062 0.335938 62.84375 0.507812 62.550781 C 0.507812 62.550781 19.800781 25.960938 59.820312 1.234375 "/>
</g>
</svg>
