<?xml version="1.0" encoding="UTF-8"?>
<svg xmlns="http://www.w3.org/2000/svg" xmlns:xlink="http://www.w3.org/1999/xlink" width="32pt" height="32pt" viewBox="0 0 32 32" version="1.1">
<g id="surface1">
<path style=" stroke:none;fill-rule:evenodd;fill:rgb(100%,50.196078%,0%);fill-opacity:1;" d="M 14.957031 0.308594 C 15.574219 -0.101562 16.382812 -0.101562 17.003906 0.308594 C 18.578125 1.296875 20.089844 2.382812 21.53125 3.558594 C 21.53125 3.558594 21.921875 3.828125 21.933594 3.367188 C 21.933594 3.367188 21.867188 2.011719 22.03125 1.597656 C 22.144531 1.273438 22.445312 1.054688 22.789062 1.054688 C 22.789062 1.054688 24.566406 1.140625 25.695312 1.292969 C 26.199219 1.371094 26.585938 1.785156 26.625 2.289062 C 26.625 2.289062 27.351562 7.121094 27.515625 8.859375 C 27.515625 8.859375 27.65625 9.746094 28.941406 11.246094 C 28.941406 11.246094 31.539062 14.878906 31.859375 15.59375 C 31.859375 15.59375 32.46875 16.855469 31.160156 17.023438 C 31.160156 17.023438 28.773438 17.265625 28.546875 17.320312 C 28.222656 17.351562 27.984375 17.640625 28.011719 17.964844 C 28.015625 17.96875 28.015625 17.976562 28.015625 17.980469 C 28.015625 17.980469 27.890625 26.375 27.273438 30.410156 C 27.273438 30.410156 27.113281 32.011719 26.222656 31.96875 C 26.222656 31.96875 23.773438 31.890625 23.203125 31.90625 C 23.203125 31.90625 22.953125 31.925781 22.992188 31.582031 C 22.992188 31.582031 24.242188 18.488281 23.394531 11.867188 C 23.394531 11.867188 23.359375 11.011719 22.703125 10.835938 C 22.703125 10.835938 22.109375 10.59375 21.539062 11.378906 C 21.539062 11.378906 17.652344 16.296875 17.660156 23.191406 C 17.660156 23.191406 17.589844 25.285156 17.910156 25.820312 C 17.910156 25.820312 18.109375 26.1875 19.121094 26.269531 L 20.40625 26.441406 C 20.40625 26.441406 20.648438 26.441406 20.625 26.753906 C 20.625 26.753906 20.328125 30.59375 20.246094 31.277344 C 20.242188 31.433594 20.210938 31.585938 20.152344 31.730469 C 20.152344 31.730469 20.105469 31.859375 19.703125 31.84375 C 19.703125 31.84375 14.039062 31.804688 13.398438 31.84375 C 13.398438 31.84375 13.132812 31.871094 13.074219 31.707031 C 13.015625 31.542969 12.679688 26.75 12.691406 26.066406 C 12.683594 25.925781 12.761719 25.792969 12.890625 25.730469 C 13.769531 25.179688 14.347656 24.261719 14.464844 23.238281 C 14.464844 23.238281 14.542969 22.839844 14.496094 21.039062 C 14.496094 21.039062 14.703125 13.671875 14.757812 12.492188 C 14.757812 12.492188 14.800781 12.09375 14.277344 12.015625 C 14.015625 11.953125 13.753906 12.117188 13.691406 12.378906 C 13.691406 12.390625 13.6875 12.40625 13.683594 12.421875 C 13.683594 12.421875 13.316406 17.28125 13.386719 19.214844 C 13.386719 19.214844 13.511719 20.472656 12.640625 20.496094 C 12.640625 20.496094 11.792969 20.621094 11.753906 19.578125 C 11.753906 19.578125 11.816406 14.851562 12.023438 12.519531 C 12.027344 12.253906 11.824219 12.03125 11.558594 12.011719 C 11.277344 11.964844 11.015625 12.15625 10.96875 12.433594 C 10.96875 12.449219 10.964844 12.460938 10.964844 12.476562 C 10.964844 12.476562 10.601562 16.996094 10.667969 19.382812 C 10.667969 19.382812 10.773438 20.539062 9.847656 20.496094 C 9.847656 20.496094 9.074219 20.585938 9.03125 19.558594 C 9.03125 19.558594 9.242188 13.089844 9.296875 12.589844 C 9.335938 12.304688 9.132812 12.039062 8.84375 12.003906 C 8.828125 12 8.808594 12 8.792969 12 C 8.519531 11.960938 8.269531 12.15625 8.230469 12.429688 C 8.230469 12.445312 8.226562 12.460938 8.226562 12.476562 C 8.226562 12.476562 7.878906 20.210938 7.929688 22.484375 C 7.929688 22.484375 7.898438 24.820312 9.628906 25.769531 C 9.628906 25.769531 9.882812 25.914062 9.890625 26.136719 C 9.890625 26.136719 10.085938 30.242188 10.261719 31.566406 C 10.261719 31.566406 10.324219 31.882812 10.039062 31.882812 L 5.6875 32 C 5.6875 32 4.964844 32.050781 4.800781 31.15625 C 4.65625 30.328125 3.859375 23.480469 3.992188 18.046875 C 4.023438 17.710938 3.792969 17.402344 3.460938 17.335938 C 3.460938 17.335938 1.230469 17.128906 0.691406 16.996094 C 0.199219 16.867188 -0.0976562 16.367188 0.03125 15.871094 C 0.0507812 15.789062 0.0820312 15.710938 0.128906 15.636719 C 0.128906 15.636719 4.949219 6.492188 14.957031 0.308594 "/>
</g>
</svg>
