<?xml version="1.0" encoding="UTF-8"?>
<svg xmlns="http://www.w3.org/2000/svg" xmlns:xlink="http://www.w3.org/1999/xlink" width="16pt" height="16pt" viewBox="0 0 16 16" version="1.1">
<g id="surface1">
<path style=" stroke:none;fill-rule:evenodd;fill:rgb(100%,50.196078%,0%);fill-opacity:1;" d="M 7.476562 0.15625 C 7.789062 -0.0507812 8.191406 -0.0507812 8.5 0.15625 C 9.289062 0.648438 10.046875 1.191406 10.765625 1.777344 C 10.765625 1.777344 10.960938 1.914062 10.964844 1.683594 C 10.964844 1.683594 10.933594 1.007812 11.015625 0.796875 C 11.070312 0.636719 11.222656 0.527344 11.394531 0.527344 C 11.394531 0.527344 12.285156 0.570312 12.847656 0.644531 C 13.101562 0.683594 13.292969 0.890625 13.3125 1.144531 C 13.3125 1.144531 13.675781 3.558594 13.757812 4.429688 C 13.757812 4.429688 13.828125 4.871094 14.472656 5.621094 C 14.472656 5.621094 15.769531 7.4375 15.929688 7.796875 C 15.929688 7.796875 16.234375 8.429688 15.582031 8.511719 C 15.582031 8.511719 14.386719 8.632812 14.273438 8.660156 C 14.109375 8.675781 13.992188 8.820312 14.007812 8.980469 C 14.007812 8.984375 14.007812 8.988281 14.007812 8.992188 C 14.007812 8.992188 13.945312 13.1875 13.636719 15.207031 C 13.636719 15.207031 13.558594 16.003906 13.113281 15.984375 C 13.113281 15.984375 11.886719 15.945312 11.601562 15.953125 C 11.601562 15.953125 11.476562 15.964844 11.496094 15.789062 C 11.496094 15.789062 12.121094 9.242188 11.695312 5.933594 C 11.695312 5.933594 11.679688 5.507812 11.351562 5.417969 C 11.351562 5.417969 11.054688 5.296875 10.769531 5.6875 C 10.769531 5.6875 8.828125 8.148438 8.832031 11.597656 C 8.832031 11.597656 8.792969 12.644531 8.953125 12.910156 C 8.953125 12.910156 9.054688 13.09375 9.5625 13.136719 L 10.203125 13.21875 C 10.203125 13.21875 10.324219 13.21875 10.3125 13.375 C 10.3125 13.375 10.164062 15.296875 10.125 15.636719 C 10.121094 15.714844 10.105469 15.792969 10.074219 15.867188 C 10.074219 15.867188 10.050781 15.929688 9.851562 15.921875 C 9.851562 15.921875 7.019531 15.902344 6.699219 15.921875 C 6.699219 15.921875 6.566406 15.9375 6.535156 15.855469 C 6.507812 15.769531 6.339844 13.375 6.347656 13.03125 C 6.339844 12.960938 6.382812 12.894531 6.445312 12.863281 C 6.882812 12.589844 7.175781 12.132812 7.230469 11.617188 C 7.230469 11.617188 7.273438 11.417969 7.25 10.519531 C 7.25 10.519531 7.351562 6.835938 7.378906 6.246094 C 7.378906 6.246094 7.402344 6.046875 7.136719 6.007812 C 7.007812 5.976562 6.878906 6.058594 6.847656 6.1875 C 6.84375 6.195312 6.84375 6.203125 6.84375 6.210938 C 6.84375 6.210938 6.660156 8.640625 6.695312 9.605469 C 6.695312 9.605469 6.757812 10.234375 6.320312 10.246094 C 6.320312 10.246094 5.894531 10.3125 5.875 9.789062 C 5.875 9.789062 5.90625 7.425781 6.011719 6.257812 C 6.015625 6.125 5.910156 6.015625 5.777344 6.003906 C 5.640625 5.984375 5.507812 6.078125 5.484375 6.21875 C 5.484375 6.222656 5.484375 6.230469 5.480469 6.238281 C 5.480469 6.238281 5.300781 8.5 5.335938 9.691406 C 5.335938 9.691406 5.386719 10.269531 4.921875 10.246094 C 4.921875 10.246094 4.539062 10.292969 4.515625 9.78125 C 4.515625 9.78125 4.621094 6.546875 4.648438 6.292969 C 4.667969 6.152344 4.566406 6.019531 4.421875 6 C 4.414062 6 4.40625 6 4.398438 6 C 4.257812 5.980469 4.132812 6.078125 4.117188 6.214844 C 4.113281 6.222656 4.113281 6.230469 4.113281 6.238281 C 4.113281 6.238281 3.941406 10.105469 3.964844 11.242188 C 3.964844 11.242188 3.949219 12.410156 4.8125 12.882812 C 4.8125 12.882812 4.941406 12.957031 4.945312 13.070312 C 4.945312 13.070312 5.042969 15.121094 5.128906 15.78125 C 5.128906 15.78125 5.164062 15.941406 5.019531 15.941406 L 2.84375 16 C 2.84375 16 2.484375 16.023438 2.398438 15.578125 C 2.328125 15.164062 1.929688 11.738281 1.996094 9.023438 C 2.011719 8.855469 1.898438 8.699219 1.730469 8.667969 C 1.730469 8.667969 0.617188 8.566406 0.347656 8.5 C 0.0976562 8.433594 -0.0507812 8.183594 0.015625 7.9375 C 0.0273438 7.894531 0.0429688 7.855469 0.0625 7.820312 C 0.0625 7.820312 2.476562 3.246094 7.476562 0.15625 "/>
</g>
</svg>
