<?xml version="1.0" encoding="UTF-8"?>
<svg xmlns="http://www.w3.org/2000/svg" xmlns:xlink="http://www.w3.org/1999/xlink" width="48pt" height="48pt" viewBox="0 0 48 48" version="1.1">
<g id="surface1">
<path style=" stroke:none;fill-rule:evenodd;fill:rgb(100%,50.196078%,0%);fill-opacity:1;" d="M 22.433594 0.464844 C 23.363281 -0.15625 24.574219 -0.15625 25.503906 0.464844 C 27.867188 1.945312 30.136719 3.574219 32.292969 5.335938 C 32.292969 5.335938 32.882812 5.742188 32.898438 5.054688 C 32.898438 5.054688 32.800781 3.019531 33.050781 2.394531 C 33.214844 1.910156 33.671875 1.582031 34.183594 1.578125 C 34.183594 1.578125 36.851562 1.710938 38.542969 1.9375 C 39.300781 2.054688 39.878906 2.675781 39.9375 3.4375 C 39.9375 3.4375 41.027344 10.679688 41.273438 13.289062 C 41.273438 13.289062 41.484375 14.617188 43.414062 16.867188 C 43.414062 16.867188 47.308594 22.316406 47.785156 23.390625 C 47.785156 23.390625 48.703125 25.285156 46.742188 25.539062 C 46.742188 25.539062 43.160156 25.898438 42.824219 25.980469 C 42.332031 26.027344 41.972656 26.457031 42.019531 26.945312 C 42.019531 26.953125 42.023438 26.964844 42.023438 26.972656 C 42.023438 26.972656 41.835938 39.5625 40.910156 45.617188 C 40.910156 45.617188 40.671875 48.015625 39.335938 47.957031 C 39.335938 47.957031 35.65625 47.835938 34.804688 47.863281 C 34.804688 47.863281 34.433594 47.890625 34.488281 47.371094 C 34.488281 47.371094 36.359375 27.730469 35.089844 17.796875 C 35.089844 17.796875 35.039062 16.519531 34.054688 16.253906 C 34.054688 16.253906 33.164062 15.894531 32.308594 17.066406 C 32.308594 17.066406 26.480469 24.445312 26.492188 34.789062 C 26.492188 34.789062 26.382812 37.929688 26.863281 38.730469 C 26.863281 38.730469 27.160156 39.28125 28.683594 39.40625 L 30.609375 39.660156 C 30.609375 39.660156 30.96875 39.660156 30.9375 40.128906 C 30.9375 40.128906 30.496094 45.890625 30.371094 46.914062 C 30.363281 47.148438 30.316406 47.378906 30.226562 47.597656 C 30.226562 47.597656 30.15625 47.792969 29.550781 47.769531 C 29.550781 47.769531 21.054688 47.707031 20.101562 47.769531 C 20.101562 47.769531 19.699219 47.808594 19.609375 47.5625 C 19.523438 47.3125 19.019531 40.121094 19.039062 39.097656 C 19.023438 38.886719 19.144531 38.6875 19.335938 38.59375 C 20.652344 37.769531 21.523438 36.394531 21.695312 34.855469 C 21.695312 34.855469 21.816406 34.257812 21.746094 31.558594 C 21.746094 31.558594 22.054688 20.511719 22.136719 18.738281 C 22.136719 18.738281 22.203125 18.140625 21.414062 18.023438 C 21.023438 17.933594 20.632812 18.175781 20.539062 18.566406 C 20.535156 18.585938 20.53125 18.609375 20.527344 18.632812 C 20.527344 18.632812 19.976562 25.917969 20.082031 28.820312 C 20.082031 28.820312 20.269531 30.707031 18.960938 30.742188 C 18.960938 30.742188 17.6875 30.933594 17.628906 29.367188 C 17.628906 29.367188 17.722656 22.277344 18.035156 18.777344 C 18.042969 18.378906 17.734375 18.042969 17.335938 18.015625 C 16.917969 17.949219 16.523438 18.234375 16.453125 18.652344 C 16.453125 18.671875 16.449219 18.695312 16.445312 18.714844 C 16.445312 18.714844 15.902344 25.496094 16.003906 29.074219 C 16.003906 29.074219 16.164062 30.808594 14.769531 30.742188 C 14.769531 30.742188 13.613281 30.882812 13.546875 29.339844 C 13.546875 29.339844 13.863281 19.636719 13.945312 18.882812 C 14.003906 18.453125 13.699219 18.0625 13.265625 18.003906 C 13.242188 18 13.214844 18 13.191406 17.996094 C 12.777344 17.945312 12.402344 18.234375 12.347656 18.640625 C 12.34375 18.667969 12.339844 18.691406 12.339844 18.714844 C 12.339844 18.714844 11.820312 30.320312 11.894531 33.726562 C 11.894531 33.726562 11.847656 37.230469 14.441406 38.652344 C 14.441406 38.652344 14.824219 38.871094 14.835938 39.207031 C 14.835938 39.207031 15.128906 45.363281 15.390625 47.347656 C 15.390625 47.347656 15.488281 47.820312 15.0625 47.820312 L 8.53125 48 C 8.53125 48 7.449219 48.074219 7.199219 46.738281 C 6.984375 45.492188 5.789062 35.21875 5.984375 27.070312 C 6.035156 26.5625 5.691406 26.101562 5.191406 26.003906 C 5.191406 26.003906 1.847656 25.695312 1.039062 25.496094 C 0.296875 25.300781 -0.148438 24.550781 0.0429688 23.808594 C 0.078125 23.6875 0.125 23.566406 0.191406 23.457031 C 0.191406 23.457031 7.425781 9.734375 22.433594 0.464844 "/>
</g>
</svg>
