<svg width="61" height="61" xmlns="http://www.w3.org/2000/svg" version="1.1">

 <g>
  <title>Layer 1</title>
  <g fill-rule="evenodd" fill="none" id="elements/logo/long/61x61/white">
   <!-- <g id="Group-3" fill="#FFFFFF"> -->
   <g fill="#000000" id="Group-3">
    <path id="Icon" d="m28.50863,0.58859c1.18206,-0.78492 2.72093,-0.78492 3.90299,0c3.00299,1.88382 5.88539,3.95145 8.62924,6.19295c0,0 0.74552,0.51766 0.76844,-0.35967c0,0 -0.12458,-2.58429 0.19137,-3.37815c0.2103,-0.61602 0.78837,-1.03233 1.4402,-1.0363c0,0 3.3897,0.16891 5.54053,0.45605c0.9628,0.14804 1.69635,0.93595 1.7731,1.90269c0,0 1.38438,9.20547 1.69535,12.52103c0,0 0.2701,1.68908 2.72193,4.54958c0,0 4.94751,6.92522 5.55648,8.28741c0,0 1.16412,2.40942 -1.32658,2.73034c0,0 -4.55183,0.45605 -4.9814,0.56336c-0.62093,0.05763 -1.07841,0.60608 -1.0196,1.22508c0.001,0.01192 0.00199,0.02384 0.00399,0.03576c0,0 -0.23821,16.00053 -1.4123,23.6908c0,0 -0.30498,3.05226 -2.00532,2.97377c0,0 -4.67143,-0.15301 -5.75582,-0.11923c0,0 -0.47342,0.03477 -0.40066,-0.62397c0,0 2.37807,-24.95859 0.76345,-37.58096c0,0 -0.06278,-1.62748 -1.31661,-1.9653c0,0 -1.12923,-0.45605 -2.2196,1.0363c0,0 -7.40433,9.37438 -7.39237,22.52037c0,0 -0.13555,3.99119 0.47343,5.01059c0,0 0.37873,0.69749 2.31129,0.85547l2.45084,0.32689c0,0 0.45747,0 0.4176,0.59614c0,0 -0.56511,7.31967 -0.72259,8.62026c-0.00996,0.29708 -0.07076,0.59018 -0.18139,0.86739c0,0 -0.0897,0.2474 -0.85814,0.21858c0,0 -10.79802,-0.07849 -12.01297,0c0,0 -0.50731,0.05167 -0.62093,-0.26429c-0.11263,-0.31496 -0.7515,-9.45287 -0.72858,-10.75346c-0.01594,-0.27025 0.13455,-0.52361 0.37874,-0.64184c1.67342,-1.04525 2.77874,-2.79493 2.99901,-4.75128c0,0 0.15249,-0.76008 0.06179,-4.18891c0,0 0.39568,-14.0412 0.49735,-16.29363c0,0 0.08471,-0.76009 -0.91496,-0.90614c-0.49834,-0.11724 -0.99667,0.19076 -1.11428,0.68755c-0.00598,0.02782 -0.01196,0.05564 -0.01595,0.08346c0,0 -0.69967,9.26211 -0.56412,12.94926c0,0 0.23721,2.39849 -1.42326,2.4432c0,0 -1.62159,0.24243 -1.69435,-1.75068c0,0 0.1186,-9.00775 0.51428,-13.45598c0.00997,-0.50672 -0.37973,-0.93197 -0.88704,-0.96774c-0.53223,-0.08545 -1.03355,0.27522 -1.12027,0.80678c-0.00398,0.02782 -0.00697,0.05465 -0.00996,0.08247c0,0 -0.69369,8.61429 -0.56412,13.16288c0,0 0.20332,2.20673 -1.56479,2.12227c0,0 -1.47309,0.17487 -1.55781,-1.78446c0,0 0.40565,-12.33026 0.50831,-13.28707c0.07176,-0.54548 -0.31396,-1.04624 -0.86213,-1.11777c-0.03189,-0.00398 -0.06578,-0.00696 -0.09867,-0.00795c-0.52326,-0.06856 -1.00166,0.29807 -1.07043,0.8187c-0.00399,0.0308 -0.00698,0.0616 -0.00798,0.0934c0,0 -0.66079,14.74564 -0.56511,19.07465c0,0 -0.0618,4.4532 3.23621,6.26051c0,0 0.48638,0.28118 0.49735,0.70345c0,0 0.37275,7.82639 0.70664,10.34808c0,0 0.12359,0.60211 -0.4186,0.60211l-8.29735,0.22554c0,0 -1.37642,0.09538 -1.69336,-1.60462c-0.2711,-1.58178 -1.79103,-14.63735 -1.54187,-24.99139c0.06479,-0.64483 -0.37375,-1.23303 -1.01063,-1.35722c0,0 -4.24784,-0.39346 -5.27542,-0.64682c-0.94286,-0.24342 -1.50797,-1.20123 -1.26478,-2.14115c0.04086,-0.15699 0.10365,-0.309 0.18638,-0.4491c0,0 9.19436,-17.43624 28.26581,-29.22004"/>
   </g>
  </g>
 </g>
</svg>