<?xml version="1.0" encoding="UTF-8"?>
<svg height="100%" viewBox="0 0 205 61" version="1.1" xmlns="http://www.w3.org/2000/svg" xmlns:xlink="http://www.w3.org/1999/xlink">
    <g id="elements/logo/long/61x61/white" stroke="none" stroke-width="1" fill="none" fill-rule="evenodd">
        <!-- <g id="Group-3" fill="#FFFFFF"> -->
		<g id="Group-3" fill="#000000">
            <path d="M172.508626,0.588593017 C173.690687,-0.196331006 175.229559,-0.196331006 176.41162,0.588593017 C179.414614,2.47241067 182.297009,4.54003964 185.040865,6.78154419 C185.040865,6.78154419 185.786381,7.29919662 185.809305,6.42187015 C185.809305,6.42187015 185.68472,3.83758232 186.000667,3.04371613 C186.210966,2.42769981 186.78904,2.011392 187.440868,2.0074177 C187.440868,2.0074177 190.830573,2.17632541 192.981405,2.4634685 C193.944197,2.61151113 194.677753,3.39941588 194.754497,4.36616407 C194.754497,4.36616407 196.138884,13.5716338 196.449848,16.8871926 C196.449848,16.8871926 196.719948,18.5762696 199.171777,21.4367712 C199.171777,21.4367712 204.119291,28.3619869 204.728262,29.7241779 C204.728262,29.7241779 205.892383,32.1335965 203.401682,32.4545212 C203.401682,32.4545212 198.84985,32.910572 198.420282,33.017878 C197.799351,33.0755054 197.341875,33.6239586 197.400679,34.2429556 C197.401676,34.2548785 197.402673,34.2668014 197.404666,34.2787243 C197.404666,34.2787243 197.16646,50.2792515 195.992372,57.9695198 C195.992372,57.9695198 195.687388,61.0217813 193.987054,60.9432889 C193.987054,60.9432889 189.315621,60.7902784 188.231234,60.8240599 C188.231234,60.8240599 187.757812,60.858835 187.830569,60.200095 C187.830569,60.200095 190.208645,35.2414982 188.594025,22.6191251 C188.594025,22.6191251 188.531235,20.9916497 187.277413,20.6538343 C187.277413,20.6538343 186.148176,20.1977835 185.057809,21.6901327 C185.057809,21.6901327 177.653482,31.0645101 177.665442,44.2104972 C177.665442,44.2104972 177.529894,48.2016868 178.138865,49.2210944 C178.138865,49.2210944 178.517603,49.9185839 180.450163,50.0765622 L182.900996,50.4034483 C182.900996,50.4034483 183.358472,50.4034483 183.318605,50.9995932 C183.318605,50.9995932 182.753488,58.3192581 182.596012,59.6198474 C182.586046,59.9169262 182.525248,60.2100307 182.414617,60.4872381 C182.414617,60.4872381 182.324916,60.7346382 181.556476,60.7058245 C181.556476,60.7058245 170.758458,60.6273321 169.543507,60.7058245 C169.543507,60.7058245 169.036197,60.7574904 168.922576,60.4415336 C168.809951,60.1265705 168.17108,50.9886638 168.194004,49.6880745 C168.178057,49.4178222 168.328555,49.1644607 168.572742,49.0462253 C170.246165,48.0009847 171.351482,46.2512996 171.571748,44.294951 C171.571748,44.294951 171.72424,43.5348663 171.633542,40.10604 C171.633542,40.10604 172.029224,26.0648422 172.130885,23.8124083 C172.130885,23.8124083 172.215603,23.0523237 171.215934,22.9062682 C170.717595,22.7890264 170.219255,23.0970345 170.101647,23.5938219 C170.095667,23.621642 170.089687,23.6494621 170.0857,23.6772822 C170.0857,23.6772822 169.386032,32.9393856 169.52158,36.6265414 C169.52158,36.6265414 169.75879,39.0250307 168.098323,39.0697416 C168.098323,39.0697416 166.476726,39.3121738 166.403969,37.319063 C166.403969,37.319063 166.522573,28.3113146 166.918255,23.8630806 C166.928222,23.3563575 166.53852,22.9311076 166.031211,22.8953389 C165.498984,22.8098914 164.997655,23.1705591 164.910944,23.7021215 C164.906957,23.7299416 164.903967,23.7567681 164.900977,23.7845882 C164.900977,23.7845882 164.207289,32.398881 164.336857,36.947466 C164.336857,36.947466 164.540179,39.1541954 162.772071,39.0697416 C162.772071,39.0697416 161.29898,39.2446107 161.214262,37.2852814 C161.214262,37.2852814 161.61991,24.9550192 161.722568,23.9982068 C161.794329,23.4527343 161.408615,22.9519726 160.860441,22.8804352 C160.828547,22.8764609 160.79466,22.8734802 160.76177,22.8724866 C160.238514,22.80393 159.760108,23.1705591 159.691337,23.6911922 C159.68735,23.721993 159.68436,23.7527938 159.683364,23.7845882 C159.683364,23.7845882 159.022566,38.5302305 159.118247,42.8592355 C159.118247,42.8592355 159.056453,47.3124374 162.354463,49.1197498 C162.354463,49.1197498 162.840842,49.4009314 162.851805,49.8232007 C162.851805,49.8232007 163.224563,57.6495887 163.558451,60.1712813 C163.558451,60.1712813 163.682039,60.7733876 163.139846,60.7733876 L154.842495,60.9989291 C154.842495,60.9989291 153.466081,61.0943122 153.149137,59.3943059 C152.878041,57.812535 151.358106,44.7569632 151.607275,34.4029212 C151.672059,33.7580912 151.233521,33.169895 150.596643,33.0456981 C150.596643,33.0456981 146.348798,32.6522425 145.321222,32.398881 C144.378364,32.1554552 143.813247,31.1976492 144.056437,30.2577275 C144.097301,30.1007427 144.160091,29.9487257 144.242816,29.8086317 C144.242816,29.8086317 153.437178,12.3723891 172.508626,0.588593017" id="Icon"></path>
        </g>
    </g>
</svg>